<?xml version="1.0" standalone="no"?>
<!DOCTYPE svg PUBLIC "-//W3C//DTD SVG 20010904//EN"
 "http://www.w3.org/TR/2001/REC-SVG-20010904/DTD/svg10.dtd">
<svg version="1.0" xmlns="http://www.w3.org/2000/svg"
 width="210.000000pt" height="190.000000pt" viewBox="0 0 210.000000 190.000000"
 preserveAspectRatio="xMidYMid meet">

<g transform="translate(0.000000,190.000000) scale(0.100000,-0.100000)"
fill="#000000" stroke="none">
<path d="M1439 1590 c-186 -21 -334 -86 -473 -205 l-88 -77 -105 -9 c-57 -5
-118 -16 -134 -25 -31 -15 -164 -207 -175 -250 -3 -12 1 -38 10 -58 18 -44 53
-61 144 -71 50 -6 65 -11 73 -29 16 -30 219 -235 250 -251 22 -12 27 -24 37
-91 7 -43 19 -88 26 -100 19 -27 69 -48 100 -40 43 11 240 149 254 178 7 15
17 75 22 134 l9 106 44 47 c147 158 214 304 238 521 23 208 -15 244 -232 220z
m178 -54 c15 -15 4 -210 -17 -291 -52 -205 -191 -387 -385 -503 l-50 -30 -186
185 -187 186 30 51 c104 176 282 321 463 375 117 35 309 51 332 27z"/>
<path d="M1210 1359 c-134 -78 -108 -279 41 -319 162 -44 286 151 176 277 -57
64 -148 82 -217 42z m125 -61 c14 -6 25 -14 25 -17 0 -4 -32 -38 -71 -76 -67
-67 -71 -69 -85 -51 -8 11 -14 37 -14 59 0 74 74 118 145 85z"/>
<path d="M620 803 c-8 -3 -41 -31 -72 -61 -61 -59 -71 -88 -42 -116 27 -27 54
-18 115 41 50 48 59 62 57 86 -3 32 -34 58 -58 50z m24 -40 c7 -7 -92 -113
-106 -113 -20 0 -4 28 39 72 48 49 55 53 67 41z"/>
<path d="M597 592 c-108 -109 -126 -139 -95 -170 31 -31 62 -14 171 96 108
109 126 139 95 170 -31 31 -62 14 -171 -96z m146 54 c-16 -26 -204 -199 -210
-192 -5 5 121 145 180 198 21 19 42 15 30 -6z"/>
<path d="M747 541 c-57 -60 -70 -94 -45 -119 26 -26 62 -13 120 45 59 58 73
94 46 121 -27 27 -64 13 -121 -47z m53 -41 c-30 -27 -58 -50 -62 -50 -17 0 -6
17 42 69 40 44 53 52 63 42 9 -10 1 -22 -43 -61z"/>
</g>
</svg>
