<?xml version="1.0" standalone="no"?>
<!DOCTYPE svg PUBLIC "-//W3C//DTD SVG 20010904//EN"
 "http://www.w3.org/TR/2001/REC-SVG-20010904/DTD/svg10.dtd">
<svg version="1.0" xmlns="http://www.w3.org/2000/svg"
 width="192.000000pt" height="192.000000pt" viewBox="0 0 192.000000 192.000000"
 preserveAspectRatio="xMidYMid meet">

<g transform="translate(0.000000,192.000000) scale(0.100000,-0.100000)"
fill="#000000" stroke="none">
<path d="M850 1804 c-229 -14 -388 -45 -463 -88 -105 -62 -185 -160 -219 -268
-67 -217 -67 -759 0 -976 45 -142 162 -259 305 -304 216 -67 758 -67 974 0
143 45 260 162 305 304 67 217 67 759 0 976 -45 142 -162 259 -305 304 -108
33 -434 62 -597 52z m481 -393 c29 -29 29 -31 29 -140 0 -100 2 -110 20 -116
36 -12 60 -54 60 -108 0 -57 -19 -87 -57 -87 l-23 0 0 -169 c0 -154 -2 -171
-20 -194 -11 -14 -29 -29 -40 -32 -12 -4 -20 -15 -20 -27 0 -42 -28 -58 -98
-58 -73 0 -102 16 -102 57 0 23 -1 23 -120 23 -116 0 -120 -1 -120 -22 0 -42
-27 -58 -98 -58 -72 0 -102 16 -102 56 0 14 -8 25 -20 29 -11 3 -29 18 -40 32
-18 23 -20 40 -20 194 0 167 0 169 -22 169 -39 0 -58 28 -58 85 0 56 23 98 60
110 18 6 20 16 20 116 0 109 0 111 29 140 l29 29 342 0 342 0 29 -29z"/>
<path d="M705 1335 c-14 -13 -25 -29 -25 -35 0 -6 11 -22 25 -35 l24 -25 231
0 231 0 24 25 c14 13 25 29 25 35 0 6 -11 22 -25 35 l-24 25 -231 0 -231 0
-24 -25z"/>
<path d="M665 1175 c-24 -23 -25 -31 -25 -135 0 -104 1 -112 25 -135 l24 -25
271 0 271 0 24 25 c24 23 25 31 25 135 0 104 -1 112 -25 135 l-24 25 -271 0
-271 0 -24 -25z"/>
<path d="M705 775 c-14 -13 -25 -29 -25 -35 0 -6 11 -22 25 -35 13 -14 29 -25
35 -25 6 0 22 11 35 25 14 13 25 29 25 35 0 6 -11 22 -25 35 -13 14 -29 25
-35 25 -6 0 -22 -11 -35 -25z"/>
<path d="M1145 775 c-14 -13 -25 -29 -25 -35 0 -6 11 -22 25 -35 13 -14 29
-25 35 -25 6 0 22 11 35 25 14 13 25 29 25 35 0 6 -11 22 -25 35 -13 14 -29
25 -35 25 -6 0 -22 -11 -35 -25z"/>
</g>
</svg>
