<?xml version="1.0" standalone="no"?>
<!DOCTYPE svg PUBLIC "-//W3C//DTD SVG 20010904//EN"
 "http://www.w3.org/TR/2001/REC-SVG-20010904/DTD/svg10.dtd">
<svg version="1.0" xmlns="http://www.w3.org/2000/svg"
 width="192.000000pt" height="192.000000pt" viewBox="0 0 192.000000 192.000000"
 preserveAspectRatio="xMidYMid meet">

<g transform="translate(0.000000,192.000000) scale(0.100000,-0.100000)"
fill="#000000" stroke="none">
<path d="M850 1804 c-229 -14 -388 -45 -463 -88 -105 -62 -185 -160 -219 -268
-67 -217 -67 -759 0 -976 45 -142 162 -259 305 -304 216 -67 758 -67 974 0
143 45 260 162 305 304 67 217 67 759 0 976 -45 142 -162 259 -305 304 -108
33 -434 62 -597 52z m528 -478 c8 -15 11 -39 7 -53 -3 -14 -56 -76 -116 -139
l-111 -112 51 -220 c28 -121 51 -233 51 -250 0 -38 -20 -54 -62 -50 -32 3 -36
9 -123 175 l-90 172 -103 -102 -103 -103 10 -60 c11 -68 -4 -104 -42 -104 -18
0 -31 15 -60 70 -39 72 -56 88 -145 135 -56 30 -65 51 -32 80 16 15 30 17 87
11 l68 -7 99 100 c55 55 98 102 95 104 -2 2 -76 41 -164 86 -88 46 -166 90
-173 99 -27 35 -1 92 44 92 12 0 117 -22 234 -50 117 -27 219 -50 229 -50 9 0
61 45 116 101 55 56 113 107 130 114 39 17 85 0 103 -39z"/>
</g>
</svg>
