<?xml version="1.0" standalone="no"?>
<!DOCTYPE svg PUBLIC "-//W3C//DTD SVG 20010904//EN"
 "http://www.w3.org/TR/2001/REC-SVG-20010904/DTD/svg10.dtd">
<svg version="1.0" xmlns="http://www.w3.org/2000/svg"
 width="192.000000pt" height="192.000000pt" viewBox="0 0 192.000000 192.000000"
 preserveAspectRatio="xMidYMid meet">

<g transform="translate(0.000000,192.000000) scale(0.100000,-0.100000)"
fill="#000000" stroke="none">
<path d="M850 1804 c-229 -14 -388 -45 -463 -88 -105 -62 -185 -160 -219 -268
-67 -217 -67 -759 0 -976 45 -142 162 -259 305 -304 216 -67 758 -67 974 0
143 45 260 162 305 304 67 217 67 759 0 976 -45 142 -162 259 -305 304 -108
33 -434 62 -597 52z m142 -332 c21 -20 23 -34 26 -132 l4 -110 184 0 c183 0
185 0 209 -25 l25 -24 0 -296 c0 -249 2 -295 14 -295 26 0 46 -30 46 -71 l0
-39 -540 0 -540 0 0 39 c0 41 20 71 46 71 12 0 14 64 14 428 1 320 4 431 13
443 28 36 48 39 264 36 206 -2 213 -3 235 -25z"/>
<path d="M596 1364 c-10 -27 -6 -110 6 -122 7 -7 24 -12 38 -12 38 0 50 18 50
71 0 69 -6 79 -50 79 -25 0 -40 -5 -44 -16z"/>
<path d="M811 1361 c-14 -25 -14 -87 -1 -112 7 -12 21 -19 38 -19 47 0 53 11
50 81 l-3 64 -37 3 c-28 2 -39 -1 -47 -17z"/>
<path d="M608 1109 c-14 -8 -18 -23 -18 -70 0 -54 2 -61 25 -71 19 -8 31 -8
50 0 23 10 25 17 25 71 0 49 -4 62 -19 71 -24 12 -41 12 -63 -1z"/>
<path d="M816 1104 c-10 -10 -16 -33 -16 -64 0 -69 31 -96 81 -70 15 9 19 22
19 70 0 48 -4 61 -19 70 -27 14 -47 13 -65 -6z"/>
<path d="M1038 1109 c-27 -15 -26 -124 1 -139 50 -26 81 1 81 70 0 69 -34 97
-82 69z"/>
<path d="M1248 1109 c-14 -8 -18 -23 -18 -70 0 -54 2 -61 25 -71 19 -8 31 -8
50 0 22 10 25 18 25 66 0 45 -4 58 -22 70 -26 18 -36 19 -60 5z"/>
<path d="M602 838 c-12 -12 -16 -95 -6 -122 4 -11 19 -16 44 -16 25 0 40 5 44
16 10 27 6 110 -6 122 -15 15 -61 15 -76 0z"/>
<path d="M810 831 c-5 -11 -10 -69 -10 -130 l0 -111 50 0 50 0 0 124 c0 104
-3 125 -16 130 -31 12 -63 6 -74 -13z"/>
<path d="M1033 843 c-10 -3 -13 -39 -13 -129 l0 -124 50 0 50 0 0 111 c0 61
-5 119 -10 130 -10 18 -48 24 -77 12z"/>
<path d="M1242 838 c-12 -12 -16 -95 -6 -122 4 -11 19 -16 44 -16 25 0 40 5
44 16 10 27 6 110 -6 122 -15 15 -61 15 -76 0z"/>
</g>
</svg>
