<?xml version="1.0" standalone="no"?>
<!DOCTYPE svg PUBLIC "-//W3C//DTD SVG 20010904//EN"
 "http://www.w3.org/TR/2001/REC-SVG-20010904/DTD/svg10.dtd">
<svg version="1.0" xmlns="http://www.w3.org/2000/svg"
 width="192.000000pt" height="192.000000pt" viewBox="0 0 192.000000 192.000000"
 preserveAspectRatio="xMidYMid meet">

<g transform="translate(0.000000,192.000000) scale(0.100000,-0.100000)"
fill="#000000" stroke="none">
<path d="M754 1800 c-274 -27 -376 -63 -477 -169 -122 -128 -159 -285 -159
-671 0 -386 37 -543 159 -671 125 -131 285 -171 683 -171 398 0 558 40 683
171 122 128 159 285 159 671 0 398 -40 558 -171 683 -85 81 -163 115 -315 138
-144 22 -434 31 -562 19z m181 -319 c6 0 37 2 70 5 48 4 66 1 92 -15 52 -32
67 -66 73 -155 l5 -81 30 -3 c17 -2 33 -7 37 -11 13 -12 -33 -663 -48 -689
l-14 -22 -335 0 -335 0 -15 23 c-13 21 -12 54 21 352 19 181 37 332 40 337 3
4 34 8 68 8 l63 0 5 79 c7 128 64 186 173 177 33 -3 65 -5 70 -5z m416 -253
c6 -26 74 -697 71 -705 -7 -20 -141 -17 -149 3 -6 15 34 666 42 692 4 10 33
18 36 10z"/>
<path d="M825 1421 c-45 -19 -60 -50 -60 -120 l0 -66 90 0 90 0 0 67 c0 59 -3
71 -25 92 -29 28 -66 39 -95 27z"/>
<path d="M999 1424 c-1 -5 0 -13 2 -19 2 -5 5 -46 9 -90 l5 -80 45 0 45 0 0
67 c0 59 -3 71 -25 92 -26 26 -79 45 -81 30z"/>
</g>
</svg>
