<?xml version="1.0" standalone="no"?>
<!DOCTYPE svg PUBLIC "-//W3C//DTD SVG 20010904//EN"
 "http://www.w3.org/TR/2001/REC-SVG-20010904/DTD/svg10.dtd">
<svg version="1.0" xmlns="http://www.w3.org/2000/svg"
 width="192.000000pt" height="192.000000pt" viewBox="0 0 192.000000 192.000000"
 preserveAspectRatio="xMidYMid meet">

<g transform="translate(0.000000,192.000000) scale(0.100000,-0.100000)"
fill="#000000" stroke="none">
<path d="M815 1799 c-293 -17 -420 -56 -529 -165 -77 -77 -121 -170 -142 -299
-34 -217 -34 -533 0 -750 40 -251 190 -401 441 -441 322 -51 763 -26 921 51
150 73 240 204 270 390 34 217 34 533 0 750 -21 129 -65 222 -142 299 -105
105 -236 148 -489 161 -55 3 -122 7 -150 9 -27 1 -108 -1 -180 -5z m518 -288
c70 -9 132 -22 137 -27 12 -12 -26 -293 -42 -309 -6 -7 -23 5 -49 35 -21 25
-39 48 -39 53 0 17 -28 1 -186 -112 l-167 -119 -100 34 c-56 19 -109 34 -118
34 -11 0 -39 -41 -84 -121 -37 -66 -73 -123 -80 -125 -7 -3 -39 11 -73 30
l-60 36 100 178 c55 97 104 181 109 187 6 6 59 -7 144 -35 l134 -44 64 45 c34
24 95 67 135 94 39 28 72 53 72 56 0 3 -16 27 -35 52 -19 25 -35 53 -35 61 0
20 13 20 173 -3z m115 -447 c22 -15 22 -16 22 -333 0 -233 -3 -320 -12 -329
-15 -15 -216 -16 -238 -2 -13 8 -15 56 -15 330 0 307 1 322 19 336 29 20 194
19 224 -2z m-370 -176 c17 -17 17 -469 0 -486 -13 -13 -202 -17 -232 -6 -14 5
-16 37 -16 248 0 134 3 246 7 249 12 13 228 8 241 -5z m-384 -164 c13 -13 16
-42 16 -163 0 -101 -4 -151 -12 -159 -16 -16 -220 -16 -236 0 -8 8 -12 59 -12
165 0 134 2 153 18 162 9 6 61 11 114 11 75 0 100 -4 112 -16z"/>
</g>
</svg>
