<?xml version="1.0" standalone="no"?>
<!DOCTYPE svg PUBLIC "-//W3C//DTD SVG 20010904//EN"
 "http://www.w3.org/TR/2001/REC-SVG-20010904/DTD/svg10.dtd">
<svg version="1.0" xmlns="http://www.w3.org/2000/svg"
 width="192.000000pt" height="192.000000pt" viewBox="0 0 192.000000 192.000000"
 preserveAspectRatio="xMidYMid meet">

<g transform="translate(0.000000,192.000000) scale(0.100000,-0.100000)"
fill="#000000" stroke="none">
<path d="M850 1804 c-229 -14 -388 -45 -463 -88 -105 -62 -185 -160 -219 -268
-67 -217 -67 -759 0 -976 45 -142 162 -259 305 -304 216 -67 758 -67 974 0
143 45 260 162 305 304 67 217 67 759 0 976 -45 142 -162 259 -305 304 -108
33 -434 62 -597 52z m388 -388 c66 -21 128 -76 142 -124 6 -21 10 -159 10
-322 0 -255 -2 -289 -19 -325 -22 -50 -69 -91 -122 -106 l-40 -12 37 -38 c48
-49 41 -69 -21 -69 -43 0 -51 5 -104 55 l-58 55 -98 0 -98 0 -58 -55 c-54 -52
-60 -55 -109 -55 -68 0 -75 19 -26 69 l37 38 -40 12 c-53 15 -100 56 -122 106
-17 36 -19 70 -19 330 0 282 1 292 23 335 27 56 89 95 178 115 92 21 433 15
507 -9z"/>
<path d="M651 1201 c-15 -27 -14 -143 2 -164 11 -15 28 -17 127 -15 l115 3 0
95 0 95 -117 3 c-108 2 -118 1 -127 -17z"/>
<path d="M1024 1207 c-3 -8 -4 -52 -2 -98 l3 -84 115 -3 c136 -3 140 -1 140
96 0 101 -1 102 -136 102 -86 0 -116 -3 -120 -13z"/>
<path d="M695 790 c-77 -30 -57 -143 25 -143 41 0 73 32 73 73 0 50 -53 88
-98 70z"/>
<path d="M1175 790 c-77 -30 -57 -143 25 -143 41 0 73 32 73 73 0 50 -53 88
-98 70z"/>
</g>
</svg>
